<mxfile host="Electron" modified="2023-10-12T12:17:28.375Z" agent="Mozilla/5.0 (Windows NT 10.0; Win64; x64) AppleWebKit/537.36 (KHTML, like Gecko) draw.io/22.0.2 Chrome/114.0.5735.289 Electron/25.8.4 Safari/537.36" etag="ngeTAszQlHebBRvAvb0a" version="22.0.2" type="device">
  <diagram name="Page-1" id="929967ad-93f9-6ef4-fab6-5d389245f69c">
    <mxGraphModel dx="1235" dy="740" grid="1" gridSize="10" guides="1" tooltips="1" connect="1" arrows="1" fold="1" page="1" pageScale="1.5" pageWidth="1169" pageHeight="826" background="none" math="0" shadow="0">
      <root>
        <mxCell id="0" style=";html=1;" />
        <mxCell id="1" style=";html=1;" parent="0" />
        <mxCell id="Aj8FmFiF2Flj0TLNnAcf-69" value="&lt;p style=&quot;margin: 0px ; margin-top: 4px ; margin-left: 10px ; text-align: left&quot;&gt;&lt;b&gt;Behavior&lt;/b&gt;&lt;/p&gt;" style="html=1;strokeWidth=1;shape=mxgraph.sysml.package;html=1;overflow=fill;whiteSpace=wrap;fillColor=none;gradientColor=none;fontSize=12;align=center;labelX=228;" parent="1" vertex="1">
          <mxGeometry x="480" y="320" width="410" height="720" as="geometry" />
        </mxCell>
        <mxCell id="Aj8FmFiF2Flj0TLNnAcf-20" value="" style="rounded=1;whiteSpace=wrap;html=1;arcSize=40;fontColor=#000000;fillColor=#ffffc0;strokeColor=#ff0000;" parent="1" vertex="1">
          <mxGeometry x="70" y="440" width="380" height="410" as="geometry" />
        </mxCell>
        <mxCell id="1672d66443f91eb5-1" value="&lt;p style=&quot;margin: 0px ; margin-top: 4px ; margin-left: 10px ; text-align: left&quot;&gt;&lt;b&gt;Controller&lt;/b&gt;&lt;/p&gt;" style="html=1;strokeWidth=1;shape=mxgraph.sysml.package;html=1;overflow=fill;whiteSpace=wrap;fillColor=none;gradientColor=none;fontSize=12;align=center;labelX=327.64;" parent="1" vertex="1">
          <mxGeometry x="40" y="320" width="440" height="720" as="geometry" />
        </mxCell>
        <mxCell id="T7qDYHzZFrhNePmMQIgt-3" value="" style="ellipse;html=1;shape=endState;fillColor=#000000;strokeColor=#ff0000;" parent="1" vertex="1">
          <mxGeometry x="240" y="880" width="30" height="30" as="geometry" />
        </mxCell>
        <mxCell id="T7qDYHzZFrhNePmMQIgt-4" value="" style="ellipse;html=1;shape=startState;fillColor=#000000;strokeColor=#ff0000;" parent="1" vertex="1">
          <mxGeometry x="240" y="350" width="30" height="30" as="geometry" />
        </mxCell>
        <mxCell id="T7qDYHzZFrhNePmMQIgt-5" value="" style="edgeStyle=orthogonalEdgeStyle;html=1;verticalAlign=bottom;endArrow=open;endSize=8;strokeColor=#ff0000;rounded=0;entryX=0.5;entryY=0;entryDx=0;entryDy=0;" parent="1" source="T7qDYHzZFrhNePmMQIgt-4" target="Aj8FmFiF2Flj0TLNnAcf-1" edge="1">
          <mxGeometry relative="1" as="geometry">
            <mxPoint x="255.00000000000023" y="450" as="targetPoint" />
          </mxGeometry>
        </mxCell>
        <mxCell id="Aj8FmFiF2Flj0TLNnAcf-1" value="Assign" style="html=1;whiteSpace=wrap;" parent="1" vertex="1">
          <mxGeometry x="200" y="460" width="110" height="50" as="geometry" />
        </mxCell>
        <mxCell id="Aj8FmFiF2Flj0TLNnAcf-2" value="" style="shape=line;html=1;strokeWidth=6;strokeColor=#ff0000;" parent="1" vertex="1">
          <mxGeometry x="155" y="560" width="200" height="10" as="geometry" />
        </mxCell>
        <mxCell id="Aj8FmFiF2Flj0TLNnAcf-4" value="Services" style="html=1;whiteSpace=wrap;" parent="1" vertex="1">
          <mxGeometry x="90" y="620" width="110" height="50" as="geometry" />
        </mxCell>
        <mxCell id="Aj8FmFiF2Flj0TLNnAcf-5" value="Data providers" style="html=1;whiteSpace=wrap;" parent="1" vertex="1">
          <mxGeometry x="310" y="620" width="110" height="50" as="geometry" />
        </mxCell>
        <mxCell id="Aj8FmFiF2Flj0TLNnAcf-6" value="Reference&lt;br&gt;loading spinner" style="html=1;whiteSpace=wrap;" parent="1" vertex="1">
          <mxGeometry x="200" y="780" width="110" height="50" as="geometry" />
        </mxCell>
        <mxCell id="Aj8FmFiF2Flj0TLNnAcf-7" value="" style="shape=line;html=1;strokeWidth=6;strokeColor=#ff0000;" parent="1" vertex="1">
          <mxGeometry x="155" y="730" width="200" height="10" as="geometry" />
        </mxCell>
        <mxCell id="Aj8FmFiF2Flj0TLNnAcf-9" value="" style="edgeStyle=orthogonalEdgeStyle;html=1;verticalAlign=bottom;endArrow=open;endSize=8;strokeColor=#ff0000;rounded=0;exitX=0.5;exitY=1;exitDx=0;exitDy=0;" parent="1" source="Aj8FmFiF2Flj0TLNnAcf-1" edge="1">
          <mxGeometry relative="1" as="geometry">
            <mxPoint x="255" y="560" as="targetPoint" />
            <mxPoint x="254.57999999999998" y="525" as="sourcePoint" />
          </mxGeometry>
        </mxCell>
        <mxCell id="Aj8FmFiF2Flj0TLNnAcf-10" value="" style="edgeStyle=orthogonalEdgeStyle;html=1;verticalAlign=bottom;endArrow=open;endSize=8;strokeColor=#ff0000;rounded=0;exitX=0.25;exitY=0.5;exitDx=0;exitDy=0;exitPerimeter=0;entryX=0.5;entryY=0;entryDx=0;entryDy=0;" parent="1" source="Aj8FmFiF2Flj0TLNnAcf-2" target="Aj8FmFiF2Flj0TLNnAcf-4" edge="1">
          <mxGeometry relative="1" as="geometry">
            <mxPoint x="240" y="620" as="targetPoint" />
            <mxPoint x="240" y="570" as="sourcePoint" />
          </mxGeometry>
        </mxCell>
        <mxCell id="Aj8FmFiF2Flj0TLNnAcf-11" value="" style="edgeStyle=orthogonalEdgeStyle;html=1;verticalAlign=bottom;endArrow=open;endSize=8;strokeColor=#ff0000;rounded=0;exitX=0.75;exitY=0.5;exitDx=0;exitDy=0;exitPerimeter=0;entryX=0.5;entryY=0;entryDx=0;entryDy=0;" parent="1" source="Aj8FmFiF2Flj0TLNnAcf-2" target="Aj8FmFiF2Flj0TLNnAcf-5" edge="1">
          <mxGeometry relative="1" as="geometry">
            <mxPoint x="155" y="630" as="targetPoint" />
            <mxPoint x="215" y="575" as="sourcePoint" />
          </mxGeometry>
        </mxCell>
        <mxCell id="Aj8FmFiF2Flj0TLNnAcf-12" value="" style="edgeStyle=orthogonalEdgeStyle;html=1;verticalAlign=bottom;endArrow=open;endSize=8;strokeColor=#ff0000;rounded=0;exitX=0.5;exitY=1;exitDx=0;exitDy=0;entryX=0.25;entryY=0.5;entryDx=0;entryDy=0;entryPerimeter=0;" parent="1" source="Aj8FmFiF2Flj0TLNnAcf-4" target="Aj8FmFiF2Flj0TLNnAcf-7" edge="1">
          <mxGeometry relative="1" as="geometry">
            <mxPoint x="200" y="695" as="targetPoint" />
            <mxPoint x="260" y="640" as="sourcePoint" />
          </mxGeometry>
        </mxCell>
        <mxCell id="Aj8FmFiF2Flj0TLNnAcf-13" value="" style="edgeStyle=orthogonalEdgeStyle;html=1;verticalAlign=bottom;endArrow=open;endSize=8;strokeColor=#ff0000;rounded=0;exitX=0.5;exitY=1;exitDx=0;exitDy=0;entryX=0.75;entryY=0.5;entryDx=0;entryDy=0;entryPerimeter=0;" parent="1" source="Aj8FmFiF2Flj0TLNnAcf-5" target="Aj8FmFiF2Flj0TLNnAcf-7" edge="1">
          <mxGeometry relative="1" as="geometry">
            <mxPoint x="309.48" y="730" as="targetPoint" />
            <mxPoint x="249.48000000000002" y="675" as="sourcePoint" />
          </mxGeometry>
        </mxCell>
        <mxCell id="Aj8FmFiF2Flj0TLNnAcf-15" value="" style="edgeStyle=orthogonalEdgeStyle;html=1;verticalAlign=bottom;endArrow=open;endSize=8;strokeColor=#ff0000;rounded=0;exitX=0.5;exitY=1;exitDx=0;exitDy=0;" parent="1" edge="1">
          <mxGeometry relative="1" as="geometry">
            <mxPoint x="254.76" y="778" as="targetPoint" />
            <mxPoint x="254.76" y="740" as="sourcePoint" />
          </mxGeometry>
        </mxCell>
        <mxCell id="Aj8FmFiF2Flj0TLNnAcf-16" value="" style="edgeStyle=orthogonalEdgeStyle;html=1;verticalAlign=bottom;endArrow=open;endSize=8;strokeColor=#ff0000;rounded=0;exitX=0.5;exitY=1;exitDx=0;exitDy=0;entryX=0.5;entryY=0;entryDx=0;entryDy=0;dashed=1;" parent="1" source="Aj8FmFiF2Flj0TLNnAcf-6" target="T7qDYHzZFrhNePmMQIgt-3" edge="1">
          <mxGeometry relative="1" as="geometry">
            <mxPoint x="254.82999999999998" y="868" as="targetPoint" />
            <mxPoint x="255" y="830" as="sourcePoint" />
          </mxGeometry>
        </mxCell>
        <mxCell id="Aj8FmFiF2Flj0TLNnAcf-17" value="" style="ellipse;html=1;shape=startState;fillColor=#000000;strokeColor=#ff0000;" parent="1" vertex="1">
          <mxGeometry x="599.94" y="350" width="30" height="30" as="geometry" />
        </mxCell>
        <mxCell id="Aj8FmFiF2Flj0TLNnAcf-22" value="&lt;font style=&quot;font-size: 16px;&quot;&gt;On start&lt;/font&gt;" style="text;html=1;align=center;verticalAlign=middle;resizable=0;points=[];autosize=1;strokeColor=none;fillColor=none;fontColor=#000000;" parent="1" vertex="1">
          <mxGeometry x="330" y="490" width="80" height="30" as="geometry" />
        </mxCell>
        <mxCell id="Aj8FmFiF2Flj0TLNnAcf-23" value="Create&lt;br&gt;components references" style="html=1;whiteSpace=wrap;" parent="1" vertex="1">
          <mxGeometry x="559.94" y="410" width="110" height="50" as="geometry" />
        </mxCell>
        <mxCell id="Aj8FmFiF2Flj0TLNnAcf-27" value="" style="edgeStyle=orthogonalEdgeStyle;html=1;verticalAlign=bottom;endArrow=open;endSize=8;strokeColor=#ff0000;rounded=0;" parent="1" edge="1">
          <mxGeometry relative="1" as="geometry">
            <mxPoint x="614.6500000000001" y="408" as="targetPoint" />
            <mxPoint x="614.6500000000001" y="378" as="sourcePoint" />
          </mxGeometry>
        </mxCell>
        <mxCell id="Aj8FmFiF2Flj0TLNnAcf-28" value="" style="edgeStyle=orthogonalEdgeStyle;html=1;verticalAlign=bottom;endArrow=open;endSize=8;strokeColor=#ff0000;rounded=0;exitX=0.5;exitY=1;exitDx=0;exitDy=0;" parent="1" source="Aj8FmFiF2Flj0TLNnAcf-23" edge="1">
          <mxGeometry relative="1" as="geometry">
            <mxPoint x="614.6500000000001" y="490" as="targetPoint" />
            <mxPoint x="614.6500000000001" y="460" as="sourcePoint" />
          </mxGeometry>
        </mxCell>
        <mxCell id="Aj8FmFiF2Flj0TLNnAcf-29" value="Initialize list elements&lt;br&gt;&lt;b&gt;Observable robots&lt;/b&gt;" style="html=1;dropTarget=0;whiteSpace=wrap;" parent="1" vertex="1">
          <mxGeometry x="559.94" y="490" width="120" height="80" as="geometry" />
        </mxCell>
        <mxCell id="Aj8FmFiF2Flj0TLNnAcf-30" value="" style="shape=module;jettyWidth=8;jettyHeight=4;" parent="Aj8FmFiF2Flj0TLNnAcf-29" vertex="1">
          <mxGeometry x="1" width="20" height="20" relative="1" as="geometry">
            <mxPoint x="-27" y="7" as="offset" />
          </mxGeometry>
        </mxCell>
        <mxCell id="Aj8FmFiF2Flj0TLNnAcf-31" value="has server&lt;br&gt;connection" style="rhombus;whiteSpace=wrap;html=1;fontColor=#000000;fillColor=#ffffc0;strokeColor=#ff0000;" parent="1" vertex="1">
          <mxGeometry x="564.94" y="590" width="105" height="60" as="geometry" />
        </mxCell>
        <mxCell id="Aj8FmFiF2Flj0TLNnAcf-32" value="yes" style="edgeStyle=orthogonalEdgeStyle;html=1;align=left;verticalAlign=bottom;endArrow=open;endSize=8;strokeColor=#ff0000;rounded=0;entryX=0.5;entryY=0;entryDx=0;entryDy=0;" parent="1" source="Aj8FmFiF2Flj0TLNnAcf-31" target="Aj8FmFiF2Flj0TLNnAcf-45" edge="1">
          <mxGeometry x="-1" relative="1" as="geometry">
            <mxPoint x="789.94" y="670" as="targetPoint" />
          </mxGeometry>
        </mxCell>
        <mxCell id="Aj8FmFiF2Flj0TLNnAcf-34" value="On try agian" style="rounded=1;whiteSpace=wrap;html=1;arcSize=40;fontColor=#000000;fillColor=#ffffc0;strokeColor=#ff0000;" parent="1" vertex="1">
          <mxGeometry x="559.94" y="690" width="120" height="40" as="geometry" />
        </mxCell>
        <mxCell id="Aj8FmFiF2Flj0TLNnAcf-35" value="" style="edgeStyle=orthogonalEdgeStyle;html=1;verticalAlign=bottom;endArrow=open;endSize=8;strokeColor=#ff0000;rounded=0;" parent="1" source="Aj8FmFiF2Flj0TLNnAcf-34" edge="1">
          <mxGeometry relative="1" as="geometry">
            <mxPoint x="619.94" y="770" as="targetPoint" />
          </mxGeometry>
        </mxCell>
        <mxCell id="Aj8FmFiF2Flj0TLNnAcf-36" value="Call for server&lt;br&gt;data" style="html=1;whiteSpace=wrap;" parent="1" vertex="1">
          <mxGeometry x="564.94" y="770" width="110" height="50" as="geometry" />
        </mxCell>
        <mxCell id="Aj8FmFiF2Flj0TLNnAcf-37" value="Destroy list&amp;nbsp;enries&lt;br&gt;&lt;b&gt;Observable robots&lt;/b&gt;" style="html=1;dropTarget=0;whiteSpace=wrap;" parent="1" vertex="1">
          <mxGeometry x="559.94" y="860" width="120" height="80" as="geometry" />
        </mxCell>
        <mxCell id="Aj8FmFiF2Flj0TLNnAcf-38" value="" style="shape=module;jettyWidth=8;jettyHeight=4;" parent="Aj8FmFiF2Flj0TLNnAcf-37" vertex="1">
          <mxGeometry x="1" width="20" height="20" relative="1" as="geometry">
            <mxPoint x="-27" y="7" as="offset" />
          </mxGeometry>
        </mxCell>
        <mxCell id="Aj8FmFiF2Flj0TLNnAcf-39" value="" style="edgeStyle=orthogonalEdgeStyle;html=1;align=left;verticalAlign=bottom;endArrow=open;endSize=8;strokeColor=#ff0000;rounded=0;entryX=0;entryY=0.5;entryDx=0;entryDy=0;exitX=0;exitY=0.5;exitDx=0;exitDy=0;" parent="1" source="Aj8FmFiF2Flj0TLNnAcf-37" target="Aj8FmFiF2Flj0TLNnAcf-29" edge="1">
          <mxGeometry x="-1" relative="1" as="geometry">
            <mxPoint x="479.94" y="620" as="targetPoint" />
            <mxPoint x="389.94" y="729" as="sourcePoint" />
            <Array as="points">
              <mxPoint x="519.94" y="900" />
              <mxPoint x="519.94" y="530" />
            </Array>
          </mxGeometry>
        </mxCell>
        <mxCell id="Aj8FmFiF2Flj0TLNnAcf-40" value="" style="edgeStyle=orthogonalEdgeStyle;html=1;verticalAlign=bottom;endArrow=open;endSize=8;strokeColor=#ff0000;rounded=0;exitX=0.5;exitY=1;exitDx=0;exitDy=0;entryX=0.5;entryY=0;entryDx=0;entryDy=0;" parent="1" source="Aj8FmFiF2Flj0TLNnAcf-36" target="Aj8FmFiF2Flj0TLNnAcf-37" edge="1">
          <mxGeometry relative="1" as="geometry">
            <mxPoint x="617.0999999999999" y="870" as="targetPoint" />
            <mxPoint x="617.0999999999999" y="830" as="sourcePoint" />
          </mxGeometry>
        </mxCell>
        <mxCell id="Aj8FmFiF2Flj0TLNnAcf-42" value="" style="edgeStyle=orthogonalEdgeStyle;html=1;verticalAlign=bottom;endArrow=open;endSize=8;strokeColor=#ff0000;rounded=0;" parent="1" edge="1">
          <mxGeometry relative="1" as="geometry">
            <mxPoint x="617.2" y="690" as="targetPoint" />
            <mxPoint x="617.2" y="650" as="sourcePoint" />
          </mxGeometry>
        </mxCell>
        <mxCell id="Aj8FmFiF2Flj0TLNnAcf-44" value="no" style="edgeLabel;html=1;align=center;verticalAlign=middle;resizable=0;points=[];" parent="Aj8FmFiF2Flj0TLNnAcf-42" vertex="1" connectable="0">
          <mxGeometry x="-0.39" relative="1" as="geometry">
            <mxPoint as="offset" />
          </mxGeometry>
        </mxCell>
        <mxCell id="Aj8FmFiF2Flj0TLNnAcf-43" value="" style="edgeStyle=orthogonalEdgeStyle;html=1;verticalAlign=bottom;endArrow=open;endSize=8;strokeColor=#ff0000;rounded=0;entryX=0.497;entryY=-0.052;entryDx=0;entryDy=0;entryPerimeter=0;" parent="1" target="Aj8FmFiF2Flj0TLNnAcf-31" edge="1">
          <mxGeometry relative="1" as="geometry">
            <mxPoint x="617.02" y="610" as="targetPoint" />
            <mxPoint x="617.02" y="570" as="sourcePoint" />
          </mxGeometry>
        </mxCell>
        <mxCell id="Aj8FmFiF2Flj0TLNnAcf-45" value="Idle for action" style="html=1;whiteSpace=wrap;" parent="1" vertex="1">
          <mxGeometry x="739.94" y="670" width="110" height="50" as="geometry" />
        </mxCell>
        <mxCell id="Aj8FmFiF2Flj0TLNnAcf-46" value="On select&lt;br&gt;&lt;b&gt;Observable robots&lt;/b&gt;" style="html=1;dropTarget=0;whiteSpace=wrap;" parent="1" vertex="1">
          <mxGeometry x="734.94" y="860" width="120" height="80" as="geometry" />
        </mxCell>
        <mxCell id="Aj8FmFiF2Flj0TLNnAcf-47" value="" style="shape=module;jettyWidth=8;jettyHeight=4;" parent="Aj8FmFiF2Flj0TLNnAcf-46" vertex="1">
          <mxGeometry x="1" width="20" height="20" relative="1" as="geometry">
            <mxPoint x="-27" y="7" as="offset" />
          </mxGeometry>
        </mxCell>
        <mxCell id="Aj8FmFiF2Flj0TLNnAcf-48" value="" style="edgeStyle=orthogonalEdgeStyle;html=1;verticalAlign=bottom;endArrow=open;endSize=8;strokeColor=#ff0000;rounded=0;entryX=0.5;entryY=0;entryDx=0;entryDy=0;" parent="1" target="Aj8FmFiF2Flj0TLNnAcf-46" edge="1">
          <mxGeometry relative="1" as="geometry">
            <mxPoint x="794.44" y="760" as="targetPoint" />
            <mxPoint x="794.44" y="720" as="sourcePoint" />
          </mxGeometry>
        </mxCell>
        <mxCell id="Aj8FmFiF2Flj0TLNnAcf-50" value="" style="edgeStyle=orthogonalEdgeStyle;html=1;verticalAlign=bottom;endArrow=open;endSize=8;strokeColor=#ff0000;rounded=0;entryX=1;entryY=0.5;entryDx=0;entryDy=0;exitX=1;exitY=0.5;exitDx=0;exitDy=0;" parent="1" edge="1">
          <mxGeometry relative="1" as="geometry">
            <mxPoint x="739.9400000000005" y="692.48" as="targetPoint" />
            <mxPoint x="734.9400000000005" y="897.48" as="sourcePoint" />
            <Array as="points">
              <mxPoint x="709.9400000000005" y="897.48" />
              <mxPoint x="709.9400000000005" y="692.48" />
            </Array>
          </mxGeometry>
        </mxCell>
        <mxCell id="Aj8FmFiF2Flj0TLNnAcf-51" value="Actor" style="shape=umlActor;verticalLabelPosition=middle;verticalAlign=middle;html=1;labelPosition=right;align=left;" parent="1" vertex="1">
          <mxGeometry x="1080" y="350" width="30" height="60" as="geometry" />
        </mxCell>
        <mxCell id="Aj8FmFiF2Flj0TLNnAcf-55" value="" style="shape=line;html=1;strokeWidth=6;strokeColor=#ff0000;" parent="1" vertex="1">
          <mxGeometry x="995" y="450" width="200" height="10" as="geometry" />
        </mxCell>
        <mxCell id="Aj8FmFiF2Flj0TLNnAcf-57" value="On refresh list" style="rounded=1;whiteSpace=wrap;html=1;arcSize=40;fontColor=#000000;fillColor=#ffffc0;strokeColor=#ff0000;" parent="1" vertex="1">
          <mxGeometry x="960" y="510" width="120" height="40" as="geometry" />
        </mxCell>
        <mxCell id="Aj8FmFiF2Flj0TLNnAcf-58" value="On robot select" style="rounded=1;whiteSpace=wrap;html=1;arcSize=40;fontColor=#000000;fillColor=#ffffc0;strokeColor=#ff0000;" parent="1" vertex="1">
          <mxGeometry x="1120" y="510" width="120" height="40" as="geometry" />
        </mxCell>
        <mxCell id="Aj8FmFiF2Flj0TLNnAcf-59" value="" style="edgeStyle=orthogonalEdgeStyle;html=1;verticalAlign=bottom;endArrow=open;endSize=8;strokeColor=#ff0000;rounded=0;entryX=1;entryY=0.5;entryDx=0;entryDy=0;exitX=0;exitY=0.5;exitDx=0;exitDy=0;" parent="1" source="Aj8FmFiF2Flj0TLNnAcf-57" target="Aj8FmFiF2Flj0TLNnAcf-29" edge="1">
          <mxGeometry relative="1" as="geometry">
            <mxPoint x="877.0200000000004" y="354.99" as="targetPoint" />
            <mxPoint x="872.0200000000004" y="559.99" as="sourcePoint" />
            <Array as="points">
              <mxPoint x="740" y="530" />
              <mxPoint x="740" y="530" />
            </Array>
          </mxGeometry>
        </mxCell>
        <mxCell id="Aj8FmFiF2Flj0TLNnAcf-60" value="" style="edgeStyle=orthogonalEdgeStyle;html=1;verticalAlign=bottom;endArrow=open;endSize=8;strokeColor=#ff0000;rounded=0;entryX=1;entryY=0.5;entryDx=0;entryDy=0;exitX=0.5;exitY=1;exitDx=0;exitDy=0;" parent="1" source="Aj8FmFiF2Flj0TLNnAcf-58" target="Aj8FmFiF2Flj0TLNnAcf-46" edge="1">
          <mxGeometry relative="1" as="geometry">
            <mxPoint x="877" y="899.5" as="targetPoint" />
            <mxPoint x="1157" y="899.5" as="sourcePoint" />
            <Array as="points" />
          </mxGeometry>
        </mxCell>
        <mxCell id="Aj8FmFiF2Flj0TLNnAcf-61" value="" style="edgeStyle=orthogonalEdgeStyle;html=1;verticalAlign=bottom;endArrow=open;endSize=8;strokeColor=#ff0000;rounded=0;entryX=0.5;entryY=0;entryDx=0;entryDy=0;exitX=0.75;exitY=0.5;exitDx=0;exitDy=0;exitPerimeter=0;" parent="1" source="Aj8FmFiF2Flj0TLNnAcf-55" target="Aj8FmFiF2Flj0TLNnAcf-58" edge="1">
          <mxGeometry relative="1" as="geometry">
            <mxPoint x="680" y="430" as="targetPoint" />
            <mxPoint x="960" y="430" as="sourcePoint" />
            <Array as="points">
              <mxPoint x="1145" y="480" />
              <mxPoint x="1180" y="480" />
            </Array>
          </mxGeometry>
        </mxCell>
        <mxCell id="Aj8FmFiF2Flj0TLNnAcf-62" value="" style="edgeStyle=orthogonalEdgeStyle;html=1;verticalAlign=bottom;endArrow=open;endSize=8;strokeColor=#ff0000;rounded=0;entryX=0.5;entryY=0;entryDx=0;entryDy=0;exitX=0.25;exitY=0.5;exitDx=0;exitDy=0;exitPerimeter=0;" parent="1" source="Aj8FmFiF2Flj0TLNnAcf-55" target="Aj8FmFiF2Flj0TLNnAcf-57" edge="1">
          <mxGeometry relative="1" as="geometry">
            <mxPoint x="1190" y="520" as="targetPoint" />
            <mxPoint x="1155" y="465" as="sourcePoint" />
            <Array as="points">
              <mxPoint x="1050" y="455" />
              <mxPoint x="1050" y="480" />
              <mxPoint x="1020" y="480" />
            </Array>
          </mxGeometry>
        </mxCell>
        <mxCell id="Aj8FmFiF2Flj0TLNnAcf-63" value="" style="ellipse;html=1;shape=endState;fillColor=#000000;strokeColor=#ff0000;" parent="1" vertex="1">
          <mxGeometry x="779.94" y="990" width="30" height="30" as="geometry" />
        </mxCell>
        <mxCell id="Aj8FmFiF2Flj0TLNnAcf-64" value="" style="edgeStyle=orthogonalEdgeStyle;html=1;verticalAlign=bottom;endArrow=open;endSize=8;strokeColor=#ff0000;rounded=0;entryX=0.5;entryY=0;entryDx=0;entryDy=0;exitX=0.5;exitY=1;exitDx=0;exitDy=0;dashed=1;" parent="1" source="Aj8FmFiF2Flj0TLNnAcf-46" target="Aj8FmFiF2Flj0TLNnAcf-63" edge="1">
          <mxGeometry relative="1" as="geometry">
            <mxPoint x="794.35" y="980" as="targetPoint" />
            <mxPoint x="794.35" y="910" as="sourcePoint" />
          </mxGeometry>
        </mxCell>
        <mxCell id="Aj8FmFiF2Flj0TLNnAcf-65" value="" style="edgeStyle=orthogonalEdgeStyle;html=1;verticalAlign=bottom;endArrow=open;endSize=8;strokeColor=#ff0000;rounded=0;entryX=1;entryY=0.5;entryDx=0;entryDy=0;exitX=1;exitY=0.5;exitDx=0;exitDy=0;dashed=1;" parent="1" source="Aj8FmFiF2Flj0TLNnAcf-45" target="Aj8FmFiF2Flj0TLNnAcf-63" edge="1">
          <mxGeometry relative="1" as="geometry">
            <mxPoint x="877" y="1000" as="targetPoint" />
            <mxPoint x="877" y="950" as="sourcePoint" />
            <Array as="points">
              <mxPoint x="900" y="695" />
              <mxPoint x="900" y="1005" />
            </Array>
          </mxGeometry>
        </mxCell>
        <mxCell id="Aj8FmFiF2Flj0TLNnAcf-66" value="" style="edgeStyle=orthogonalEdgeStyle;html=1;verticalAlign=bottom;endArrow=open;endSize=8;strokeColor=#ff0000;rounded=0;entryX=0;entryY=0.5;entryDx=0;entryDy=0;exitX=0.5;exitY=1;exitDx=0;exitDy=0;dashed=1;" parent="1" source="Aj8FmFiF2Flj0TLNnAcf-37" target="Aj8FmFiF2Flj0TLNnAcf-63" edge="1">
          <mxGeometry relative="1" as="geometry">
            <mxPoint x="360" y="1180" as="targetPoint" />
            <mxPoint x="400" y="870" as="sourcePoint" />
            <Array as="points">
              <mxPoint x="620" y="1005" />
            </Array>
          </mxGeometry>
        </mxCell>
        <mxCell id="Aj8FmFiF2Flj0TLNnAcf-67" value="" style="edgeStyle=orthogonalEdgeStyle;html=1;verticalAlign=bottom;endArrow=open;endSize=8;strokeColor=#ff0000;rounded=0;" parent="1" edge="1">
          <mxGeometry relative="1" as="geometry">
            <mxPoint x="1094.29" y="450" as="targetPoint" />
            <mxPoint x="1094.29" y="420" as="sourcePoint" />
          </mxGeometry>
        </mxCell>
        <mxCell id="Aj8FmFiF2Flj0TLNnAcf-68" value="&lt;p style=&quot;margin: 0px ; margin-top: 4px ; margin-left: 10px ; text-align: left&quot;&gt;View&lt;/p&gt;" style="html=1;strokeWidth=1;shape=mxgraph.sysml.package;html=1;overflow=fill;whiteSpace=wrap;fillColor=none;gradientColor=none;fontSize=12;align=center;labelX=327.64;" parent="1" vertex="1">
          <mxGeometry x="890" y="320" width="450" height="720" as="geometry" />
        </mxCell>
      </root>
    </mxGraphModel>
  </diagram>
</mxfile>
